<svg width="14" height="14" viewBox="0 0 14 14" fill="none" xmlns="http://www.w3.org/2000/svg">
<path d="M0.786149 2.64637L5.05503 6.91525L0.786149 11.1841C0.292417 11.6779 0.284822 12.4906 0.786149 12.9919C1.27988 13.4857 2.09264 13.4781 2.58637 12.9844L6.85525 8.71547L11.1241 12.9844C11.6103 13.4705 12.423 13.4781 12.9168 12.9844C13.4105 12.4906 13.4029 11.6779 12.9168 11.1917L8.64788 6.92285L12.9168 2.65397C13.4029 2.16783 13.4105 1.35507 12.9168 0.861339C12.4154 0.360012 11.6027 0.367607 11.1165 0.853743L6.84766 5.12262L2.57878 0.853743C2.09264 0.367607 1.27988 0.360012 0.786149 0.853743C0.292417 1.34748 0.300013 2.16023 0.786149 2.64637Z" fill="#80868B"/>
</svg>
