<svg width="18" height="20" viewBox="0 0 18 20" fill="none" xmlns="http://www.w3.org/2000/svg">
<path d="M5.28699 19.6719H12.9335C14.2518 19.6719 15.0956 18.8896 15.1571 17.5625L15.7196 5.64453H16.5897C17.0468 5.64453 17.3895 5.30176 17.3895 4.85352C17.3895 4.40527 17.0468 4.0625 16.5897 4.0625H12.9423V2.83203C12.9423 1.52246 12.1161 0.757812 10.6835 0.757812H7.51941C6.08679 0.757812 5.25183 1.52246 5.25183 2.83203V4.0625H1.62195C1.17371 4.0625 0.822144 4.40527 0.822144 4.85352C0.822144 5.30176 1.17371 5.64453 1.62195 5.64453H2.50085L3.05457 17.5713C3.11609 18.8984 3.95105 19.6719 5.28699 19.6719ZM6.91296 2.90234C6.91296 2.49805 7.19421 2.23438 7.63367 2.23438H10.5604C11.0087 2.23438 11.2899 2.49805 11.2899 2.90234V4.0625H6.91296V2.90234ZM5.48035 18.0723C5.02332 18.0723 4.70691 17.7471 4.68054 17.2549L4.13562 5.64453H14.0585L13.5311 17.2549C13.5048 17.7471 13.1971 18.0723 12.7313 18.0723H5.48035ZM6.65808 16.7715C7.03601 16.7715 7.27332 16.5342 7.26453 16.1914L7.00964 7.57812C7.00085 7.22656 6.75476 7.00684 6.4032 7.00684C6.03406 7.00684 5.79675 7.23535 5.81433 7.58691L6.06042 16.2002C6.06921 16.543 6.31531 16.7715 6.65808 16.7715ZM9.11023 16.7715C9.47058 16.7715 9.71667 16.543 9.71667 16.2002V7.57812C9.71667 7.23535 9.47058 7.00684 9.11023 7.00684C8.74988 7.00684 8.495 7.23535 8.495 7.57812V16.2002C8.495 16.543 8.74988 16.7715 9.11023 16.7715ZM11.5536 16.7715C11.8964 16.7715 12.1425 16.543 12.1512 16.2002L12.3973 7.58691C12.4149 7.23535 12.1776 7.00684 11.8085 7.00684C11.4569 7.00684 11.2108 7.23535 11.202 7.57812L10.9559 16.1914C10.9384 16.5342 11.1757 16.7715 11.5536 16.7715Z" fill="#80868B"/>
</svg>
