<svg width="134" height="134" viewBox="0 0 134 134" fill="none" xmlns="http://www.w3.org/2000/svg">
<path opacity="0.1" d="M67 134C104.003 134 134 106.658 134 72.929C134 39.2004 104.003 11.8579 67 11.8579C29.9969 11.8579 0 39.2004 0 72.929C0 106.658 29.9969 134 67 134Z" fill="#367CFF"/>
<path d="M44.8706 34.5672C44.8332 34.5671 44.7966 34.5577 44.7647 34.54C44.7327 34.5222 44.7068 34.4968 44.6897 34.4665C44.6725 34.4362 44.6648 34.4022 44.6674 34.3682C44.6701 34.3342 44.6829 34.3015 44.7045 34.2737C44.742 34.2249 48.4306 29.3646 44.3131 24.9338C43.5842 24.1454 42.675 23.5117 41.6491 23.0774C40.6232 22.643 39.5055 22.4184 38.3744 22.4194H38.3201C38.7111 23.6576 38.6413 24.7584 38.0877 25.6029C37.8517 25.9846 37.5035 26.2986 37.0824 26.5096C36.6612 26.7206 36.1837 26.8202 35.7038 26.7972C35.3066 26.7675 34.9275 26.6329 34.6129 26.4098C34.2983 26.1868 34.062 25.8849 33.9328 25.5412C33.48 24.4645 33.9532 23.4206 35.2003 22.7477C35.9905 22.3506 36.8686 22.1204 37.7695 22.0743C37.4765 21.366 37.0954 20.6906 36.6338 20.0612C35.1471 17.9916 32.4373 16.5591 29.1994 16.1307C26.4556 15.7675 23.8258 16.195 22.4991 17.2192C22.4578 17.2511 22.4043 17.2668 22.3504 17.2627C22.2964 17.2586 22.2465 17.2352 22.2115 17.1976C22.1765 17.1599 22.1593 17.1112 22.1638 17.062C22.1682 17.0128 22.1939 16.9673 22.2352 16.9354C23.6473 15.8453 26.4037 15.3845 29.258 15.7625C32.6118 16.2062 35.4244 17.6988 36.9754 19.8576C37.4783 20.5421 37.8873 21.2802 38.1934 22.0554C39.4134 22.0287 40.6244 22.2518 41.7372 22.7083C42.8501 23.1648 43.8364 23.8431 44.6235 24.6931C48.9487 29.3471 45.0761 34.4379 45.0365 34.4887C45.0177 34.5129 44.9929 34.5326 44.964 34.5463C44.9351 34.56 44.9031 34.5671 44.8706 34.5672ZM37.9019 22.4337C37.0284 22.4675 36.1752 22.6845 35.4087 23.0681C34.332 23.649 33.9332 24.5019 34.3142 25.4082C34.4174 25.6859 34.6072 25.9302 34.8604 26.1111C35.1135 26.292 35.419 26.4017 35.7395 26.4268C36.143 26.4433 36.5436 26.3571 36.8965 26.1779C37.2494 25.9988 37.5406 25.7337 37.7377 25.4123C38.2466 24.6366 38.2934 23.6057 37.9019 22.4337Z" fill="#292A2E"/>
<path d="M18.9764 20.2209C18.6299 20.3155 18.2567 20.283 17.9361 20.1305C17.6155 19.978 17.3729 19.7174 17.2599 19.4043C17.1469 19.0912 17.1725 18.7502 17.3312 18.454C17.4899 18.1578 17.7692 17.9298 18.1096 17.8185C18.45 17.7072 18.8246 17.7214 19.1537 17.8581C19.4828 17.9948 19.7403 18.2432 19.8714 18.5504C20.0026 18.8576 19.997 19.1993 19.8558 19.5028C19.7147 19.8063 19.4492 20.0476 19.1158 20.1753C19.0702 20.1927 19.0237 20.2079 18.9764 20.2209ZM18.2978 18.1529C18.2647 18.1621 18.2322 18.1727 18.2003 18.1849C17.9652 18.2751 17.778 18.4454 17.6787 18.6594C17.5793 18.8735 17.5755 19.1145 17.6682 19.3311C17.7609 19.5477 17.9427 19.7227 18.1749 19.819C18.407 19.9152 18.6712 19.925 18.9112 19.8463C19.1512 19.7676 19.348 19.6066 19.4596 19.3976C19.5713 19.1886 19.5891 18.9481 19.5091 18.7273C19.4291 18.5066 19.2578 18.323 19.0315 18.2157C18.8053 18.1084 18.542 18.0859 18.2978 18.1529Z" fill="#292A2E"/>
<path d="M18.974 17.3039C18.646 17.3931 18.2933 17.3686 17.9839 17.2352C17.6744 17.1018 17.4299 16.8688 17.2975 16.581C17.1913 16.3503 17.1626 16.0961 17.2149 15.8505C17.2672 15.6049 17.3983 15.3789 17.5915 15.2012C17.7847 15.0235 18.0314 14.902 18.3003 14.8521C18.5693 14.8022 18.8485 14.8261 19.1025 14.9208C19.3566 15.0155 19.5741 15.1768 19.7276 15.3842C19.8811 15.5916 19.9637 15.8358 19.9649 16.086C19.9661 16.3362 19.8859 16.5811 19.7344 16.7897C19.5829 16.9984 19.367 17.1614 19.1138 17.2581C19.0681 17.2755 19.0215 17.2908 18.974 17.3039ZM18.2963 15.2365C18.2629 15.2456 18.2301 15.2563 18.1979 15.2686C17.9585 15.3603 17.7687 15.5348 17.6704 15.7539C17.5721 15.973 17.5733 16.2187 17.6736 16.437C17.7469 16.5962 17.8691 16.7325 18.0255 16.8297C18.182 16.9268 18.366 16.9806 18.5552 16.9844C18.7445 16.9882 18.9309 16.942 19.092 16.8513C19.253 16.7606 19.3817 16.6293 19.4626 16.4733C19.5435 16.3173 19.5731 16.1432 19.5478 15.9722C19.5224 15.8012 19.4433 15.6406 19.3199 15.5097C19.1965 15.3789 19.0342 15.2834 18.8525 15.2349C18.6709 15.1863 18.4777 15.1868 18.2963 15.2363V15.2365Z" fill="#292A2E"/>
<path d="M18.5783 18.6195C19.5806 18.6195 20.393 18.1249 20.393 17.5147C20.393 16.9046 19.5806 16.41 18.5783 16.41C17.5761 16.41 16.7637 16.9046 16.7637 17.5147C16.7637 18.1249 17.5761 18.6195 18.5783 18.6195Z" fill="white"/>
<path d="M19.3794 18.7006C19.1193 18.7708 18.8493 18.8061 18.578 18.8055C17.446 18.8055 16.5586 18.24 16.5576 17.5162C16.5566 16.7924 17.4433 16.2249 18.5751 16.2239C19.0686 16.2153 19.5541 16.3382 19.9721 16.5774C20.1597 16.6665 20.317 16.8009 20.4268 16.9658C20.5366 17.1307 20.5948 17.3199 20.5949 17.5128C20.5951 17.7057 20.5373 17.8949 20.4278 18.06C20.3182 18.2251 20.1612 18.3596 19.9737 18.4491C19.7904 18.5593 19.5901 18.6441 19.3794 18.7006ZM17.898 16.686C17.3527 16.8348 16.966 17.1559 16.9664 17.5168C16.9664 18.0149 17.7045 18.435 18.5776 18.4344C18.9904 18.4423 19.3969 18.3404 19.7472 18.141C19.8786 18.0859 19.9899 17.9975 20.0679 17.8864C20.1458 17.7753 20.1872 17.6462 20.1871 17.5143C20.1869 17.3824 20.1453 17.2533 20.0671 17.1423C19.9889 17.0314 19.8775 16.9432 19.7459 16.8882C19.3953 16.6895 18.9887 16.5883 18.576 16.5969C18.3464 16.5965 18.1181 16.6265 17.898 16.686Z" fill="#292A2E"/>
<path d="M19.0235 18.5853L18.9807 16.437L18.3945 16.4152L18.3535 18.6104L19.0235 18.5853Z" fill="#292A2E"/>
<path d="M16.1707 17.9823C16.2742 17.9823 16.3581 17.9058 16.3581 17.8115C16.3581 17.7172 16.2742 17.6407 16.1707 17.6407C16.0673 17.6407 15.9834 17.7172 15.9834 17.8115C15.9834 17.9058 16.0673 17.9823 16.1707 17.9823Z" fill="#292A2E"/>
<path d="M16.3163 17.0686C16.4197 17.0686 16.5036 16.9921 16.5036 16.8978C16.5036 16.8035 16.4197 16.7271 16.3163 16.7271C16.2128 16.7271 16.1289 16.8035 16.1289 16.8978C16.1289 16.9921 16.2128 17.0686 16.3163 17.0686Z" fill="#292A2E"/>
<path d="M78.4976 24.697C78.454 24.697 78.4114 24.6843 78.3763 24.6606C78.3412 24.6369 78.3153 24.6036 78.3025 24.5655C77.6255 22.2615 77.4449 19.8596 77.7707 17.4929C78.2982 14.0329 80.3915 9.49201 87.3685 7.50364C88.3502 7.21593 89.3571 7.00551 90.3783 6.87471C90.7068 5.00392 91.9576 2.97277 94.7535 1.57205C101.399 -1.75621 105.888 1.22996 105.932 1.26046C105.975 1.29006 106.004 1.33413 106.012 1.38297C106.019 1.43181 106.005 1.48142 105.973 1.52089C105.94 1.56036 105.892 1.58645 105.839 1.59343C105.785 1.60041 105.731 1.5877 105.687 1.55809C105.645 1.52907 101.355 -1.30977 94.9504 1.89832C92.337 3.20734 91.1405 5.08614 90.8003 6.83025C93.8776 6.55402 95.3512 7.48969 96.0127 8.19638C96.4221 8.62128 96.6852 9.1466 96.7694 9.70687C96.8536 10.2671 96.755 10.8376 96.4859 11.3472C96.2731 11.7589 95.9283 12.102 95.4971 12.3315C95.066 12.5609 94.5686 12.6658 94.0707 12.6324C92.3521 12.5405 90.9299 11.2227 90.4479 9.27511C90.2887 8.61582 90.2464 7.93757 90.3226 7.2661C89.3621 7.39187 88.4148 7.59042 87.4906 7.85969C82.0529 9.40941 78.9193 12.6683 78.1748 17.5452C77.8557 19.8582 78.0316 22.2056 78.6927 24.4576C78.7021 24.4854 78.7041 24.5149 78.6988 24.5435C78.6934 24.5722 78.6807 24.5993 78.6617 24.6227C78.6427 24.6461 78.618 24.6651 78.5895 24.6782C78.561 24.6913 78.5295 24.6982 78.4976 24.6982V24.697ZM90.7387 7.21959C90.6536 7.87828 90.6899 8.54528 90.846 9.19307C91.287 10.9748 92.5621 12.1789 94.0945 12.2609C94.5122 12.2882 94.9292 12.1997 95.2907 12.0072C95.6523 11.8146 95.9416 11.527 96.1206 11.182C96.3538 10.7377 96.4385 10.2407 96.3642 9.75292C96.2899 9.2651 96.0598 8.80796 95.7027 8.43839C94.7484 7.4177 93.007 7.00549 90.7387 7.21959Z" fill="#292A2E"/>
<path d="M110.685 3.14147C110.41 3.14098 110.141 3.06965 109.909 2.93571C109.676 2.80177 109.49 2.61068 109.372 2.3845C109.254 2.15832 109.208 1.90627 109.24 1.65743C109.273 1.4086 109.381 1.17313 109.554 0.978206C109.727 0.783281 109.956 0.636844 110.216 0.555798C110.477 0.474752 110.756 0.462401 111.024 0.520171C111.291 0.57794 111.536 0.703475 111.728 0.882286C111.921 1.0611 112.054 1.28589 112.112 1.53073C112.158 1.72479 112.155 1.92572 112.105 2.11881C112.055 2.3119 111.957 2.49225 111.82 2.64667C111.684 2.80109 111.511 2.92567 111.314 3.01128C111.118 3.0969 110.903 3.14138 110.685 3.14147ZM110.688 0.856411C110.471 0.856368 110.259 0.917698 110.082 1.03195C109.905 1.1462 109.771 1.30774 109.699 1.49431C109.626 1.68088 109.619 1.88329 109.678 2.07365C109.738 2.264 109.86 2.43293 110.029 2.55714C110.198 2.68135 110.405 2.75473 110.622 2.76717C110.839 2.77961 111.054 2.73049 111.239 2.62659C111.424 2.52268 111.568 2.36911 111.653 2.18703C111.738 2.00495 111.759 1.80334 111.713 1.60998C111.664 1.3959 111.535 1.20395 111.348 1.06663C111.161 0.9293 110.928 0.855038 110.688 0.856411Z" fill="#292A2E"/>
<path d="M110.071 6.17736C109.697 6.17729 109.337 6.04652 109.065 5.81196C108.794 5.57741 108.631 5.25692 108.611 4.91648C108.591 4.57603 108.715 4.24154 108.958 3.98186C109.2 3.72217 109.542 3.55706 109.914 3.5205C110.286 3.48395 110.659 3.57873 110.957 3.78535C111.254 3.99196 111.453 4.29468 111.514 4.63119C111.574 4.96771 111.49 5.3124 111.279 5.59431C111.069 5.87622 110.748 6.07391 110.383 6.14667C110.28 6.16708 110.176 6.17737 110.071 6.17736ZM110.076 3.89211C110 3.89216 109.925 3.89958 109.851 3.91425C109.591 3.96644 109.362 4.10771 109.212 4.30901C109.062 4.5103 109.003 4.7563 109.046 4.9964C109.089 5.2365 109.231 5.45243 109.443 5.59976C109.656 5.74709 109.922 5.81463 110.187 5.78846C110.453 5.76229 110.697 5.64442 110.87 5.45909C111.043 5.27377 111.131 5.03508 111.117 4.79215C111.103 4.54922 110.987 4.32051 110.793 4.15309C110.599 3.98568 110.343 3.89228 110.076 3.89211Z" fill="#292A2E"/>
<path d="M112.262 3.68512C112.391 3.04975 111.649 2.39237 110.605 2.21683C109.562 2.04129 108.611 2.41406 108.483 3.04944C108.354 3.68481 109.096 4.34219 110.14 4.51773C111.183 4.69327 112.134 4.3205 112.262 3.68512Z" fill="white"/>
<path d="M110.655 4.74711C110.471 4.74684 110.286 4.73127 110.104 4.7006C109.591 4.62299 109.114 4.41055 108.731 4.08934C108.564 3.95906 108.435 3.79238 108.357 3.60471C108.278 3.41704 108.253 3.21444 108.284 3.01564C108.333 2.82002 108.436 2.63891 108.583 2.48903C108.729 2.33915 108.915 2.22533 109.122 2.15809C109.608 1.99089 110.134 1.94789 110.644 2.03372C111.155 2.11956 111.63 2.33097 112.018 2.64509C112.185 2.77537 112.314 2.94205 112.392 3.12972C112.47 3.31739 112.495 3.51999 112.465 3.71879C112.416 3.91441 112.313 4.09552 112.166 4.2454C112.02 4.39528 111.834 4.5091 111.627 4.57634C111.319 4.69247 110.989 4.75056 110.655 4.74711ZM110.092 2.35899C109.815 2.35578 109.54 2.40368 109.283 2.49981C109.138 2.54407 109.008 2.62059 108.903 2.72245C108.799 2.8243 108.724 2.94828 108.685 3.08316C108.668 3.22175 108.69 3.36197 108.747 3.4911C108.805 3.62023 108.897 3.73417 109.016 3.82259C109.346 4.08521 109.747 4.26204 110.178 4.33454C110.609 4.40703 111.053 4.37252 111.465 4.23462C111.61 4.19038 111.74 4.11386 111.845 4.012C111.949 3.91014 112.024 3.78616 112.062 3.65127C112.079 3.51269 112.058 3.37251 112 3.24339C111.942 3.11428 111.85 3.00032 111.732 2.91184C111.407 2.6417 111.003 2.46374 110.569 2.39973C110.411 2.37301 110.252 2.35938 110.092 2.35899Z" fill="#292A2E"/>
<path d="M110.138 2.17419L109.727 4.4187L110.333 4.54445L110.841 2.2659L110.138 2.17419Z" fill="#292A2E"/>
<path d="M112.598 4.58873C112.707 4.58873 112.796 4.50778 112.796 4.40792C112.796 4.30806 112.707 4.22711 112.598 4.22711C112.488 4.22711 112.399 4.30806 112.399 4.40792C112.399 4.50778 112.488 4.58873 112.598 4.58873Z" fill="#292A2E"/>
<path d="M112.942 3.66307C113.052 3.66307 113.141 3.58212 113.141 3.48226C113.141 3.3824 113.052 3.30145 112.942 3.30145C112.833 3.30145 112.744 3.3824 112.744 3.48226C112.744 3.58212 112.833 3.66307 112.942 3.66307Z" fill="#292A2E"/>
<path d="M113.357 37.2601V106.738C113.357 107.531 113.012 108.291 112.397 108.852C111.782 109.413 110.948 109.728 110.078 109.728H13.7178C12.8481 109.728 12.014 109.413 11.399 108.852C10.784 108.291 10.4385 107.531 10.4385 106.738V50.8247C10.4385 50.0319 10.784 49.2716 11.399 48.7111C12.014 48.1505 12.8481 47.8356 13.7178 47.8355H71.5163C72.3861 47.8355 73.2202 47.5206 73.8352 46.96C74.4502 46.3995 74.7957 45.6392 74.7957 44.8464V37.2601C74.7957 36.4674 75.1412 35.7071 75.7562 35.1465C76.3711 34.5859 77.2053 34.271 78.075 34.271H110.078C110.948 34.271 111.782 34.5859 112.397 35.1465C113.012 35.7071 113.357 36.4674 113.357 37.2601Z" fill="#367CFF"/>
<path d="M110.078 109.914H13.718C12.7945 109.913 11.9091 109.578 11.256 108.983C10.6029 108.387 10.2355 107.58 10.2344 106.739V50.8249C10.2355 49.9831 10.6029 49.1761 11.256 48.5809C11.9091 47.9856 12.7945 47.6509 13.718 47.6499H71.5165C72.3319 47.649 73.1135 47.3534 73.69 46.8279C74.2666 46.3023 74.5909 45.5898 74.5918 44.8466V37.2604C74.5928 36.4186 74.9601 35.6115 75.6131 35.0163C76.2661 34.421 77.1515 34.0862 78.075 34.0852H110.078C111.001 34.0861 111.887 34.421 112.54 35.0162C113.193 35.6115 113.56 36.4186 113.561 37.2604V106.739C113.56 107.58 113.193 108.387 112.54 108.983C111.887 109.578 111.001 109.913 110.078 109.914ZM13.718 48.022C12.9027 48.0227 12.121 48.3183 11.5444 48.8438C10.9679 49.3692 10.6435 50.0817 10.6425 50.8249V106.739C10.6435 107.482 10.9678 108.194 11.5443 108.72C12.1209 109.245 12.9026 109.541 13.718 109.542H110.078C110.893 109.541 111.675 109.245 112.251 108.72C112.828 108.194 113.152 107.482 113.153 106.739V37.2604C113.152 36.5172 112.828 35.8047 112.251 35.2792C111.675 34.7537 110.893 34.4581 110.078 34.4572H78.075C77.2597 34.4581 76.4781 34.7537 75.9016 35.2793C75.3251 35.8048 75.0008 36.5172 74.9999 37.2604V44.846C74.9989 45.6879 74.6316 46.495 73.9785 47.0903C73.3255 47.6855 72.4401 48.0204 71.5165 48.0214L13.718 48.022Z" fill="#262626"/>
<path d="M119.479 37.2601V106.738C119.479 107.531 119.134 108.291 118.519 108.852C117.904 109.413 117.07 109.728 116.2 109.728H19.8399C18.9702 109.728 18.136 109.413 17.521 108.852C16.906 108.291 16.5605 107.531 16.5605 106.738V50.8247C16.5606 50.0319 16.9061 49.2716 17.5211 48.7111C18.1361 48.1505 18.9702 47.8356 19.8399 47.8355H77.6384C78.5081 47.8355 79.3422 47.5206 79.9572 46.96C80.5722 46.3995 80.9177 45.6392 80.9177 44.8464V37.2601C80.9177 36.4674 81.2632 35.7071 81.8782 35.1465C82.4932 34.5859 83.3273 34.271 84.1971 34.271H116.2C117.07 34.271 117.904 34.5859 118.519 35.1465C119.134 35.7071 119.479 36.4674 119.479 37.2601Z" fill="white"/>
<path d="M116.201 109.913H19.841C18.9175 109.912 18.0321 109.577 17.379 108.982C16.726 108.387 16.3586 107.58 16.3574 106.738V50.8242C16.3586 49.9824 16.726 49.1753 17.379 48.5801C18.0321 47.9849 18.9175 47.6501 19.841 47.6492H77.6395C78.4549 47.6483 79.2366 47.3527 79.8131 46.8271C80.3896 46.3016 80.7139 45.5891 80.7148 44.8459V37.2596C80.7158 36.4179 81.0831 35.6108 81.7361 35.0156C82.3891 34.4203 83.2745 34.0855 84.198 34.0845H116.201C117.124 34.0854 118.01 34.4202 118.663 35.0155C119.316 35.6107 119.683 36.4178 119.684 37.2596V106.738C119.683 107.58 119.316 108.387 118.663 108.982C118.01 109.577 117.124 109.912 116.201 109.913ZM19.841 48.0212C19.0257 48.022 18.244 48.3176 17.6675 48.843C17.0909 49.3685 16.7666 50.081 16.7656 50.8242V106.738C16.7665 107.481 17.0908 108.194 17.6674 108.719C18.244 109.245 19.0257 109.54 19.841 109.541H116.201C117.016 109.54 117.798 109.245 118.374 108.719C118.951 108.194 119.275 107.481 119.276 106.738V37.2596C119.275 36.5165 118.951 35.804 118.374 35.2785C117.798 34.7529 117.016 34.4573 116.201 34.4565H84.198C83.3827 34.4574 82.6011 34.753 82.0246 35.2785C81.4481 35.804 81.1239 36.5165 81.123 37.2596V44.8453C81.1219 45.6872 80.7546 46.4942 80.1016 47.0895C79.4485 47.6848 78.5631 48.0197 77.6395 48.0207L19.841 48.0212Z" fill="#262626"/>
<path d="M60.2453 72.3101C61.4977 72.3101 62.513 71.3847 62.513 70.2431C62.513 69.1015 61.4977 68.176 60.2453 68.176C58.9928 68.176 57.9775 69.1015 57.9775 70.2431C57.9775 71.3847 58.9928 72.3101 60.2453 72.3101Z" fill="#292A2E"/>
<path d="M75.7941 72.3101C77.0465 72.3101 78.0618 71.3847 78.0618 70.2431C78.0618 69.1015 77.0465 68.176 75.7941 68.176C74.5417 68.176 73.5264 69.1015 73.5264 70.2431C73.5264 71.3847 74.5417 72.3101 75.7941 72.3101Z" fill="#292A2E"/>
<path d="M71.0604 75.6357H64.9795V76.0078H71.0604V75.6357Z" fill="#262626"/>
<g opacity="0.1">
<path opacity="0.1" d="M57.9068 76.1564C59.0241 76.1564 59.9299 75.7219 59.9299 75.186C59.9299 74.65 59.0241 74.2155 57.9068 74.2155C56.7895 74.2155 55.8838 74.65 55.8838 75.186C55.8838 75.7219 56.7895 76.1564 57.9068 76.1564Z" fill="#367CFF"/>
<path opacity="0.1" d="M78.1363 76.1553C79.2536 76.1553 80.1593 75.7208 80.1593 75.1848C80.1593 74.6488 79.2536 74.2144 78.1363 74.2144C77.019 74.2144 76.1133 74.6488 76.1133 75.1848C76.1133 75.7208 77.019 76.1553 78.1363 76.1553Z" fill="#367CFF"/>
</g>
</svg>
